<?xml version="1.0" encoding="UTF-8" standalone="no"?>
<svg xmlns="http://www.w3.org/2000/svg" width="200" height="60" viewBox="0 0 200 60">
  <!-- Background circle representing the world -->
  <circle cx="30" cy="30" r="25" fill="#ff9907" opacity="0.1"/>
  
  <!-- Lake waves -->
  <path d="M 10 38
           C 15 36, 20 38, 25 36
           C 30 34, 35 36, 40 34
           C 45 32, 50 34, 55 32"
        fill="none"
        stroke="#ff9907"
        stroke-width="1.5"/>
        
  <path d="M 8 42
           C 13 40, 18 42, 23 40
           C 28 38, 33 40, 38 38
           C 43 36, 48 38, 53 36"
        fill="none"
        stroke="#ff9907"
        stroke-width="1.5"/>
  
  <!-- Sun -->
  <circle cx="30" cy="30" r="8" fill="#ff9907"/>
  
  <!-- Sun rays -->
  <path d="M 30 18 L 30 15" stroke="#ff9907" stroke-width="2" stroke-linecap="round"/>
  <path d="M 30 42 L 30 45" stroke="#ff9907" stroke-width="2" stroke-linecap="round"/>
  <path d="M 18 30 L 15 30" stroke="#ff9907" stroke-width="2" stroke-linecap="round"/>
  <path d="M 42 30 L 45 30" stroke="#ff9907" stroke-width="2" stroke-linecap="round"/>
  <path d="M 22 22 L 20 20" stroke="#ff9907" stroke-width="2" stroke-linecap="round"/>
  <path d="M 38 38 L 40 40" stroke="#ff9907" stroke-width="2" stroke-linecap="round"/>
  <path d="M 22 38 L 20 40" stroke="#ff9907" stroke-width="2" stroke-linecap="round"/>
  <path d="M 38 22 L 40 20" stroke="#ff9907" stroke-width="2" stroke-linecap="round"/>
  
  <!-- Text elements -->
  <text x="60" y="30" font-family="Montserrat, sans-serif" font-size="18" fill="#333333" font-weight="600">Celebrando</text>
  <text x="60" y="48" font-family="Montserrat, sans-serif" font-size="18" fill="#ff9907" font-weight="600">a vida</text>
  
  <!-- Decorative elements -->
  <path d="M 155 25 C 160 25, 165 25, 170 25" stroke="#ff9907" stroke-width="2" fill="none"/>
  <circle cx="175" cy="25" r="2" fill="#ff9907"/>
</svg> 